<svg width="32" height="32" viewBox="0 0 32 32" fill="none" xmlns="http://www.w3.org/2000/svg">
<path d="M16.0096 1.6C15.8367 1.59793 15.6677 1.65158 15.5276 1.75301C15.3876 1.85444 15.2839 1.99827 15.232 2.1632L11.0377 15.5354C10.9515 15.6747 10.91 15.837 10.9187 16.0006C10.9104 16.1638 10.952 16.3261 11.0377 16.4653L15.2313 29.8355C15.4672 30.5882 16.5321 30.5882 16.768 29.8355L20.9616 16.4643C21.048 16.3248 21.0893 16.1619 21.0806 15.9984C21.089 15.8352 21.0475 15.6734 20.9616 15.5344L16.7683 2.1632C16.7175 2.00127 16.6167 1.85958 16.4804 1.75841C16.3441 1.65725 16.1793 1.6018 16.0096 1.6ZM12.6089 16.0922H14.5945C14.6432 16.8301 15.2499 17.415 16 17.415C16.7501 17.415 17.3568 16.8301 17.4054 16.0922H19.4729L16 26.905L12.6089 16.0922Z" fill="black"/>
</svg>
